<svg width="672" height="530" viewBox="0 0 672 530" fill="none" xmlns="http://www.w3.org/2000/svg">
<g filter="url(#filter0_dd_0_742)">
<g clip-path="url(#clip0_0_742)">
<rect x="20" y="10" width="632" height="480" rx="20" fill="white"/>
<path d="M41 34.6937C38.6988 34.6937 36.8334 32.8283 36.8334 30.5271C36.8334 28.2258 38.6988 26.3604 41 26.3604C43.3013 26.3604 45.1667 28.2258 45.1667 30.5271C45.1667 32.8283 43.3013 34.6937 41 34.6937Z" fill="#E11D48"/>
<path d="M56 34.6937C53.6988 34.6937 51.8334 32.8283 51.8334 30.5271C51.8334 28.2258 53.6988 26.3604 56 26.3604C58.3013 26.3604 60.1667 28.2258 60.1667 30.5271C60.1667 32.8283 58.3013 34.6937 56 34.6937Z" fill="#FBBF24"/>
<path d="M71 34.6937C68.6988 34.6937 66.8334 32.8283 66.8334 30.5271C66.8334 28.2258 68.6988 26.3604 71 26.3604C73.3013 26.3604 75.1667 28.2258 75.1667 30.5271C75.1667 32.8283 73.3013 34.6937 71 34.6937Z" fill="#22C55E"/>
<g filter="url(#filter1_dd_0_742)">
<rect x="20" y="51" width="632" height="439" fill="#DBEAFE" shape-rendering="crispEdges"/>
<path d="M20 51.5853H125.863V490H20V51.5853Z" fill="#BFDBFE"/>
<path d="M32.7035 93.144C32.7035 89.2647 35.5473 86.12 39.0553 86.12H106.807C110.315 86.12 113.159 89.2647 113.159 93.144V93.144C113.159 97.0232 110.315 100.168 106.807 100.168H39.0552C35.5473 100.168 32.7035 97.0232 32.7035 93.144V93.144Z" fill="#93C5FD"/>
<path d="M58.1106 142.312C58.1106 140.372 59.5325 138.8 61.2865 138.8H114.218C115.972 138.8 117.394 140.372 117.394 142.312V142.312C117.394 144.252 115.972 145.824 114.218 145.824H61.2865C59.5325 145.824 58.1106 144.252 58.1106 142.312V142.312Z" fill="white"/>
<path d="M58.1106 179.773C58.1106 177.834 59.5325 176.261 61.2865 176.261H97.8091C99.5631 176.261 100.985 177.834 100.985 179.773V179.773C100.985 181.713 99.5631 183.285 97.8091 183.285H61.2865C59.5325 183.285 58.1106 181.713 58.1106 179.773V179.773Z" fill="white"/>
<path d="M58.1106 217.235C58.1106 215.295 59.5325 213.723 61.2865 213.723H106.807C108.561 213.723 109.983 215.295 109.983 217.235V217.235C109.983 219.174 108.561 220.747 106.807 220.747H61.2865C59.5325 220.747 58.1106 219.174 58.1106 217.235V217.235Z" fill="white"/>
<path fill-rule="evenodd" clip-rule="evenodd" d="M41.1725 149.921C44.9728 149.921 48.0536 146.515 48.0536 142.312C48.0536 138.109 44.9728 134.703 41.1725 134.703C37.3722 134.703 34.2914 138.109 34.2914 142.312C34.2914 146.515 37.3722 149.921 41.1725 149.921ZM41.1725 151.677C45.8498 151.677 49.6415 147.484 49.6415 142.312C49.6415 137.14 45.8498 132.947 41.1725 132.947C36.4952 132.947 32.7035 137.14 32.7035 142.312C32.7035 147.484 36.4952 151.677 41.1725 151.677Z" fill="#93C5FD"/>
<path d="M159.739 93.144C159.739 90.5578 161.635 88.4613 163.973 88.4613H225.373C227.712 88.4613 229.608 90.5578 229.608 93.144V93.144C229.608 95.7302 227.712 97.8267 225.373 97.8267H163.973C161.635 97.8267 159.739 95.7302 159.739 93.144V93.144Z" fill="#BFDBFE"/>
<path fill-rule="evenodd" clip-rule="evenodd" d="M272.218 281.949C272.249 278.611 274.647 275.768 277.73 275.768C279.622 275.768 281.014 276.804 281.902 277.779C282.149 278.05 282.362 278.321 282.539 278.571C282.717 278.321 282.929 278.05 283.177 277.779C284.065 276.804 285.457 275.768 287.349 275.768C290.431 275.768 292.83 278.611 292.861 281.949L292.861 281.95C292.92 288.461 288.188 292.966 283.432 296.536C283.169 296.734 282.858 296.84 282.539 296.84C282.221 296.84 281.909 296.734 281.646 296.536C276.89 292.966 272.158 288.461 272.218 281.95L272.218 281.949ZM283.248 280.553C283.114 280.849 282.839 281.036 282.539 281.036C282.239 281.036 281.965 280.849 281.83 280.553C281.83 280.552 281.83 280.552 281.829 280.551C281.828 280.549 281.827 280.545 281.824 280.541C281.823 280.538 281.822 280.535 281.82 280.532C281.811 280.514 281.796 280.483 281.776 280.443C281.734 280.363 281.669 280.243 281.581 280.097C281.404 279.804 281.137 279.414 280.783 279.025C280.072 278.244 279.059 277.524 277.73 277.524C275.576 277.524 273.828 279.525 273.806 281.967M283.248 280.553C283.249 280.552 283.249 280.552 283.249 280.551C283.251 280.548 283.254 280.541 283.258 280.532C283.267 280.514 283.282 280.483 283.303 280.443C283.344 280.363 283.409 280.243 283.498 280.097C283.675 279.804 283.941 279.414 284.295 279.025C285.007 278.244 286.019 277.524 287.349 277.524C289.502 277.524 291.25 279.525 291.273 281.967C291.322 287.454 287.337 291.482 282.54 295.084L282.539 295.084L282.539 295.083C277.741 291.482 273.756 287.454 273.806 281.967" fill="white"/>
<path d="M159.739 286.304C159.739 283.718 161.635 281.621 163.973 281.621H192.556C194.895 281.621 196.791 283.718 196.791 286.304V286.304C196.791 288.89 194.895 290.987 192.556 290.987H163.973C161.635 290.987 159.739 288.89 159.739 286.304V286.304Z" fill="#BFDBFE"/>
<path d="M205.26 286.304C205.26 283.718 207.155 281.621 209.494 281.621H257.132C259.471 281.621 261.367 283.718 261.367 286.304V286.304C261.367 288.89 259.471 290.987 257.132 290.987H209.494C207.155 290.987 205.26 288.89 205.26 286.304V286.304Z" fill="#BFDBFE"/>
<path d="M159.739 331.96C159.739 330.02 161.161 328.448 162.915 328.448H207.377C209.131 328.448 210.553 330.02 210.553 331.96V331.96C210.553 333.9 209.131 335.472 207.377 335.472H162.915C161.161 335.472 159.739 333.9 159.739 331.96V331.96Z" fill="white"/>
<path d="M159.739 348.349C159.739 346.41 161.161 344.837 162.915 344.837H231.196C232.95 344.837 234.372 346.41 234.372 348.349V348.349C234.372 350.289 232.95 351.861 231.196 351.861H162.915C161.161 351.861 159.739 350.289 159.739 348.349V348.349Z" fill="white"/>
<path d="M219.022 331.96C219.022 330.02 220.444 328.448 222.198 328.448H275.129C276.883 328.448 278.305 330.02 278.305 331.96V331.96C278.305 333.9 276.883 335.472 275.129 335.472H222.198C220.444 335.472 219.022 333.9 219.022 331.96V331.96Z" fill="white"/>
<path d="M159.739 138.8C159.739 136.86 161.161 135.288 162.915 135.288H207.377C209.131 135.288 210.553 136.86 210.553 138.8V138.8C210.553 140.74 209.131 142.312 207.377 142.312H162.915C161.161 142.312 159.739 140.74 159.739 138.8V138.8Z" fill="white"/>
<path d="M159.739 155.189C159.739 153.25 161.161 151.677 162.915 151.677H272.482C274.236 151.677 275.658 153.25 275.658 155.189V155.189C275.658 157.129 274.236 158.701 272.482 158.701H162.915C161.161 158.701 159.739 157.129 159.739 155.189V155.189Z" fill="white"/>
<path d="M219.022 138.8C219.022 136.86 220.444 135.288 222.198 135.288H342.881C344.635 135.288 346.057 136.86 346.057 138.8V138.8C346.057 140.74 344.635 142.312 342.881 142.312H222.198C220.444 142.312 219.022 140.74 219.022 138.8V138.8Z" fill="white"/>
<path fill-rule="evenodd" clip-rule="evenodd" d="M48.5829 172.164H34.8207V187.383H48.5829V172.164ZM33.2328 170.408V189.139H50.1708V170.408H33.2328Z" fill="#60A5FA"/>
<g clip-path="url(#clip1_0_742)">
<rect x="386.814" y="93.144" width="105.863" height="160.381" rx="20" fill="white"/>
<path d="M457.332 253.664C457.332 294.248 427.827 327.148 391.431 327.148C355.035 327.148 325.53 294.248 325.53 253.664C325.53 213.08 355.035 180.18 391.431 180.18C427.827 180.18 457.332 213.08 457.332 253.664Z" fill="#FACC15"/>
<path fill-rule="evenodd" clip-rule="evenodd" d="M507.373 155.605L472.939 117.527L438.505 155.605L472.939 193.683L507.373 155.605ZM472.939 114.216L435.511 155.605L472.939 196.995L510.367 155.605L472.939 114.216Z" fill="#BFDBFE"/>
</g>
<path d="M41.7018 209.04L50.1708 225.261H33.2328L41.7018 209.04Z" fill="#93C5FD"/>
<rect x="509.615" y="93.144" width="105.863" height="118.237" rx="20" fill="white"/>
<path fill-rule="evenodd" clip-rule="evenodd" d="M557.236 181.305C567.79 181.305 576.274 171.931 576.274 160.465C576.274 149 567.79 139.626 557.236 139.626C546.682 139.626 538.198 149 538.198 160.465C538.198 171.931 546.682 181.305 557.236 181.305ZM557.236 187.158C570.674 187.158 581.567 175.207 581.567 160.465C581.567 145.723 570.674 133.772 557.236 133.772C543.798 133.772 532.905 145.723 532.905 160.465C532.905 175.207 543.798 187.158 557.236 187.158Z" fill="#BFDBFE"/>
<path d="M568.294 152.016L575.294 123.127L594.418 144.275L568.294 152.016Z" fill="#FACC15"/>
<g clip-path="url(#clip2_0_742)">
<rect x="386.814" y="272.256" width="105.863" height="179.112" rx="20" fill="white"/>
<path fill-rule="evenodd" clip-rule="evenodd" d="M486.06 474.196C515.732 474.196 539.786 447.597 539.786 414.785C539.786 381.973 515.732 355.373 486.06 355.373C456.389 355.373 432.335 381.973 432.335 414.785C432.335 447.597 456.389 474.196 486.06 474.196ZM486.06 480.049C518.655 480.049 545.079 450.829 545.079 414.785C545.079 378.74 518.655 349.52 486.06 349.52C453.465 349.52 427.042 378.74 427.042 414.785C427.042 450.829 453.465 480.049 486.06 480.049Z" fill="#FACC15"/>
<path d="M442.392 325.654C442.392 336.718 434.216 345.688 424.131 345.688C414.045 345.688 405.869 336.718 405.869 325.654C405.869 314.589 414.045 305.62 424.131 305.62C434.216 305.62 442.392 314.589 442.392 325.654Z" fill="#BFDBFE"/>
<path fill-rule="evenodd" clip-rule="evenodd" d="M424.131 343.932C433.351 343.932 440.804 335.735 440.804 325.654C440.804 315.572 433.351 307.376 424.131 307.376C414.91 307.376 407.457 315.572 407.457 325.654C407.457 335.735 414.91 343.932 424.131 343.932ZM424.131 345.688C434.216 345.688 442.392 336.718 442.392 325.654C442.392 314.589 434.216 305.62 424.131 305.62C414.045 305.62 405.869 314.589 405.869 325.654C405.869 336.718 414.045 345.688 424.131 345.688Z" fill="#BFDBFE"/>
</g>
<g clip-path="url(#clip3_0_742)">
<rect x="509.615" y="230.112" width="105.863" height="200.184" rx="20" fill="white"/>
<path d="M639.826 374.397C639.826 388.782 629.399 400.444 616.536 400.444C603.673 400.444 593.246 388.782 593.246 374.397C593.246 360.011 603.673 348.349 616.536 348.349C629.399 348.349 639.826 360.011 639.826 374.397Z" fill="white"/>
<path fill-rule="evenodd" clip-rule="evenodd" d="M616.536 398.688C628.505 398.688 638.238 387.831 638.238 374.397C638.238 360.962 628.505 350.105 616.536 350.105C604.567 350.105 594.834 360.962 594.834 374.397C594.834 387.831 604.567 398.688 616.536 398.688ZM616.536 400.444C629.399 400.444 639.826 388.782 639.826 374.397C639.826 360.011 629.399 348.349 616.536 348.349C603.673 348.349 593.246 360.011 593.246 374.397C593.246 388.782 603.673 400.444 616.536 400.444Z" fill="#BFDBFE"/>
<path d="M597.481 300.645C597.481 319.879 583.499 335.472 566.251 335.472C549.004 335.472 535.022 319.879 535.022 300.645C535.022 281.41 549.004 265.817 566.251 265.817C583.499 265.817 597.481 281.41 597.481 300.645Z" fill="#BFDBFE"/>
<path d="M529.199 367.665L530.693 372.416L535.24 372.519L531.616 375.558L532.933 380.372L529.199 377.499L525.466 380.372L526.783 375.558L523.158 372.519L527.706 372.416L529.199 367.665Z" fill="#FACC15"/>
<path d="M550.901 367.665L552.395 372.416L556.942 372.519L553.318 375.558L554.635 380.372L550.901 377.499L547.168 380.372L548.485 375.558L544.86 372.519L549.408 372.416L550.901 367.665Z" fill="#FACC15"/>
<path d="M572.603 367.665L574.096 372.416L578.644 372.519L575.019 375.558L576.336 380.372L572.603 377.499L568.87 380.372L570.187 375.558L566.562 372.519L571.11 372.416L572.603 367.665Z" fill="#FACC15"/>
<path d="M594.305 367.665L595.798 372.416L600.346 372.519L596.721 375.558L598.038 380.372L594.305 377.499L590.571 380.372L591.889 375.558L588.264 372.519L592.811 372.416L594.305 367.665Z" fill="#FACC15"/>
<path d="M616.007 367.665L617.5 372.416L622.048 372.519L618.423 375.558L619.74 380.372L616.007 377.499L612.273 380.372L613.59 375.558L609.966 372.519L614.513 372.416L616.007 367.665Z" fill="#FACC15"/>
</g>
</g>
</g>
</g>
<defs>
<filter id="filter0_dd_0_742" x="0" y="0" width="672" height="530" filterUnits="userSpaceOnUse" color-interpolation-filters="sRGB">
<feFlood flood-opacity="0" result="BackgroundImageFix"/>
<feColorMatrix in="SourceAlpha" type="matrix" values="0 0 0 0 0 0 0 0 0 0 0 0 0 0 0 0 0 0 127 0" result="hardAlpha"/>
<feOffset/>
<feGaussianBlur stdDeviation="5"/>
<feColorMatrix type="matrix" values="0 0 0 0 0 0 0 0 0 0 0 0 0 0 0 0 0 0 0.07 0"/>
<feBlend mode="normal" in2="BackgroundImageFix" result="effect1_dropShadow_0_742"/>
<feColorMatrix in="SourceAlpha" type="matrix" values="0 0 0 0 0 0 0 0 0 0 0 0 0 0 0 0 0 0 127 0" result="hardAlpha"/>
<feMorphology radius="5" operator="erode" in="SourceAlpha" result="effect2_dropShadow_0_742"/>
<feOffset dy="20"/>
<feGaussianBlur stdDeviation="12.5"/>
<feColorMatrix type="matrix" values="0 0 0 0 0 0 0 0 0 0 0 0 0 0 0 0 0 0 0.1 0"/>
<feBlend mode="normal" in2="effect1_dropShadow_0_742" result="effect2_dropShadow_0_742"/>
<feBlend mode="normal" in="SourceGraphic" in2="effect2_dropShadow_0_742" result="shape"/>
</filter>
<filter id="filter1_dd_0_742" x="-18" y="36" width="708" height="517" filterUnits="userSpaceOnUse" color-interpolation-filters="sRGB">
<feFlood flood-opacity="0" result="BackgroundImageFix"/>
<feColorMatrix in="SourceAlpha" type="matrix" values="0 0 0 0 0 0 0 0 0 0 0 0 0 0 0 0 0 0 127 0" result="hardAlpha"/>
<feOffset/>
<feGaussianBlur stdDeviation="7.5"/>
<feComposite in2="hardAlpha" operator="out"/>
<feColorMatrix type="matrix" values="0 0 0 0 0 0 0 0 0 0 0 0 0 0 0 0 0 0 0.07 0"/>
<feBlend mode="normal" in2="BackgroundImageFix" result="effect1_dropShadow_0_742"/>
<feColorMatrix in="SourceAlpha" type="matrix" values="0 0 0 0 0 0 0 0 0 0 0 0 0 0 0 0 0 0 127 0" result="hardAlpha"/>
<feMorphology radius="12" operator="erode" in="SourceAlpha" result="effect2_dropShadow_0_742"/>
<feOffset dy="25"/>
<feGaussianBlur stdDeviation="25"/>
<feColorMatrix type="matrix" values="0 0 0 0 0 0 0 0 0 0 0 0 0 0 0 0 0 0 0.25 0"/>
<feBlend mode="normal" in2="effect1_dropShadow_0_742" result="effect2_dropShadow_0_742"/>
<feBlend mode="normal" in="SourceGraphic" in2="effect2_dropShadow_0_742" result="shape"/>
</filter>
<clipPath id="clip0_0_742">
<rect x="20" y="10" width="632" height="480" rx="20" fill="white"/>
</clipPath>
<clipPath id="clip1_0_742">
<rect x="386.814" y="93.144" width="105.863" height="160.381" rx="20" fill="white"/>
</clipPath>
<clipPath id="clip2_0_742">
<rect x="386.814" y="272.256" width="105.863" height="179.112" rx="20" fill="white"/>
</clipPath>
<clipPath id="clip3_0_742">
<rect x="509.615" y="230.112" width="105.863" height="200.184" rx="20" fill="white"/>
</clipPath>
</defs>
</svg>
